<svg width="88" height="88" viewBox="0 0 88 88" fill="none" xmlns="http://www.w3.org/2000/svg">
<path d="M6.85133 36.8395C5.82887 35.9733 5.70215 34.4423 6.56829 33.4199L29.0749 6.85135C29.941 5.82889 31.472 5.70217 32.4945 6.56831L37.1862 10.5427C38.2086 11.4089 38.3354 12.9399 37.4692 13.9624L14.9627 40.5308C14.0965 41.5533 12.5655 41.68 11.543 40.8139L6.85133 36.8395Z" fill="black"/>
<path d="M78.2941 84C80.8931 84 83 81.8931 83 79.2941L83 24.7059C83 22.1069 80.8931 20 78.2941 20L46.0781 20C44.6796 20 43.3536 20.6222 42.4596 21.6976L20.0873 48.6075C19.3848 49.4526 19 50.5169 19 51.6158L19 79.2941C19 81.8931 21.1069 84 23.7059 84L78.2941 84ZM28.4118 55.6428C28.4118 55.3565 28.513 55.0794 28.6977 54.8606L49.8038 29.8427C50.0343 29.5694 50.3736 29.4118 50.731 29.4118L72.3751 29.4118C73.0451 29.4118 73.5882 29.9549 73.5882 30.6249L73.5882 73.3751C73.5882 74.0451 73.0451 74.5882 72.3751 74.5882L29.6249 74.5882C28.9549 74.5882 28.4118 74.0451 28.4118 73.3751L28.4118 55.6428Z" fill="black"/>
</svg>
